<svg xmlns="http://www.w3.org/2000/svg" width="121.99" height="35" viewBox="0 0 121.99 35"><rect class="svg__rect" x="0" y="0" width="68.63" height="35" fill="#31C4F3"/><rect class="svg__rect" x="66.63" y="0" width="55.36" height="35" fill="#389AD5"/><path class="svg__text" d="M16.67 22L14.22 22L14.22 13.47L16.74 13.47Q17.87 13.47 18.74 13.97Q19.62 14.48 20.10 15.40Q20.58 16.33 20.58 17.52L20.58 17.52L20.58 17.95Q20.58 19.16 20.10 20.08Q19.61 21.00 18.72 21.50Q17.83 22 16.67 22L16.67 22ZM15.70 14.66L15.70 20.82L16.67 20.82Q17.83 20.82 18.46 20.09Q19.08 19.36 19.09 17.99L19.09 17.99L19.09 17.52Q19.09 16.13 18.49 15.40Q17.89 14.66 16.74 14.66L16.74 14.66L15.70 14.66ZM24.78 18.00L24.78 18.00L24.78 17.52Q24.78 16.28 25.22 15.32Q25.66 14.37 26.47 13.86Q27.27 13.35 28.31 13.35Q29.36 13.35 30.16 13.85Q30.97 14.35 31.41 15.29Q31.85 16.23 31.85 17.48L31.85 17.48L31.85 17.96Q31.85 19.21 31.42 20.16Q30.99 21.10 30.18 21.61Q29.38 22.12 28.33 22.12L28.33 22.12Q27.29 22.12 26.48 21.61Q25.67 21.10 25.22 20.17Q24.78 19.23 24.78 18.00ZM26.26 17.46L26.26 17.96Q26.26 19.36 26.81 20.13Q27.35 20.90 28.33 20.90L28.33 20.90Q29.31 20.90 29.84 20.15Q30.37 19.40 30.37 17.96L30.37 17.96L30.37 17.51Q30.37 16.09 29.84 15.34Q29.30 14.58 28.31 14.58L28.31 14.58Q27.35 14.58 26.81 15.33Q26.27 16.09 26.26 17.46L26.26 17.46ZM37.80 22L36.32 22L36.32 13.47L37.80 13.47L41.62 19.54L41.62 13.47L43.09 13.47L43.09 22L41.60 22L37.80 15.95L37.80 22ZM48.61 22L47.06 22L50.29 13.47L51.62 13.47L54.85 22L53.30 22L52.60 20.01L49.30 20.01L48.61 22ZM50.95 15.28L49.71 18.82L52.19 18.82L50.95 15.28Z" fill="#FFFFFF"/><path class="svg__text" d="M80.39 17.80L80.39 17.80Q80.39 16.55 80.99 15.55Q81.60 14.56 82.66 14.00Q83.72 13.43 85.05 13.43L85.05 13.43Q86.38 13.43 87.45 14.00Q88.51 14.56 89.12 15.55Q89.72 16.55 89.72 17.80L89.72 17.80Q89.72 19.22 88.95 20.30Q88.18 21.39 86.87 21.85L86.87 21.85Q87.11 22.12 87.34 22.23Q87.57 22.33 87.85 22.33L87.85 22.33Q88.56 22.33 89.13 21.75L89.13 21.75L90.16 22.97Q89.74 23.49 89.13 23.76Q88.52 24.03 87.80 24.03L87.80 24.03Q87.10 24.03 86.54 23.85Q85.98 23.67 85.41 23.25Q84.84 22.84 84.13 22.09L84.13 22.09Q83.04 21.91 82.19 21.31Q81.33 20.72 80.86 19.81Q80.39 18.89 80.39 17.80ZM82.79 17.80L82.79 17.80Q82.79 18.51 83.09 19.05Q83.39 19.60 83.91 19.90Q84.42 20.20 85.05 20.20L85.05 20.20Q85.69 20.20 86.21 19.90Q86.72 19.60 87.02 19.05Q87.32 18.51 87.32 17.80L87.32 17.80Q87.32 17.09 87.02 16.54Q86.72 16 86.21 15.70Q85.69 15.40 85.05 15.40L85.05 15.40Q84.42 15.40 83.90 15.70Q83.39 16 83.09 16.54Q82.79 17.09 82.79 17.80ZM94.38 18.26L94.38 18.26L94.38 13.60L96.76 13.60L96.76 18.19Q96.76 20.20 98.35 20.20L98.35 20.20Q99.94 20.20 99.94 18.19L99.94 18.19L99.94 13.60L102.28 13.60L102.28 18.26Q102.28 20.13 101.24 21.15Q100.20 22.17 98.33 22.17L98.33 22.17Q96.46 22.17 95.42 21.15Q94.38 20.13 94.38 18.26ZM109.75 22L107.37 22L107.37 13.60L109.75 13.60L109.75 22Z" fill="#FFFFFF" x="79.63"/></svg>